<svg width="25" height="24" viewBox="0 0 25 24" fill="none" xmlns="http://www.w3.org/2000/svg">
<path d="M13.9381 5.72691C13.9381 5.97254 13.9381 6.77312 13.9381 7.91049H17.8486L17.4246 11.3964H13.9381C13.9381 16.7724 13.9381 23.9765 13.9381 23.9765H9.31032C9.31032 23.9765 9.31032 16.8678 9.31032 11.3964H6.89893V7.91049H9.31032C9.31032 6.52805 9.31032 5.54504 9.31032 5.27134C9.31032 3.96727 9.21207 3.34852 9.76618 2.33799C10.3206 1.32751 11.8843 -0.00814899 14.589 0.0240073C17.2943 0.0573354 18.4346 0.317585 18.4346 0.317585L17.8486 4.03276C17.8486 4.03276 16.1211 3.57662 15.2732 3.73918C14.4264 3.90179 13.9381 4.42341 13.9381 5.72691Z" fill="white"/>
</svg>
