<svg width="24" height="24" viewBox="0 0 24 24" fill="none" xmlns="http://www.w3.org/2000/svg">
<path d="M12 22C9.85576 22 8.31273 21.9989 7.1097 21.8823C5.92045 21.767 5.1597 21.5455 4.55258 21.1639C3.85868 20.728 3.27192 20.1413 2.83591 19.4474C2.45455 18.8403 2.23288 18.0795 2.11773 16.8903C2.00106 15.6873 2 14.1442 2 12C2 9.85576 2.00106 8.31273 2.11773 7.1097C2.23288 5.92045 2.45455 5.1597 2.83591 4.55258C3.2719 3.85866 3.85866 3.2719 4.55258 2.83591C5.1597 2.45455 5.92045 2.23288 7.1097 2.11773C8.31258 2.00106 9.85561 2 12 2C14.1442 2 15.6873 2.00106 16.8903 2.11773C18.0795 2.23288 18.8403 2.45455 19.4474 2.83591C20.1413 3.27192 20.728 3.85868 21.1639 4.55258C21.5455 5.1597 21.767 5.92045 21.8823 7.1097C21.9989 8.31273 22 9.85576 22 12C22 14.1442 21.9989 15.6873 21.8823 16.8903C21.767 18.0795 21.5455 18.8403 21.1639 19.4474C20.728 20.1413 20.1413 20.728 19.4474 21.1639C18.8403 21.5455 18.0795 21.767 16.8903 21.8823C15.6873 21.9989 14.1442 22 12 22Z" fill="white" stroke="white" stroke-width="2"/>
<path d="M12 17C14.2091 17 16 15.2091 16 13C16 10.7909 14.2091 9 12 9C9.79086 9 8 10.7909 8 13C8 15.2091 9.79086 17 12 17Z" fill="white" stroke="black" stroke-width="2"/>
<path d="M16.875 8.25C17.4963 8.25 18 7.74632 18 7.125C18 6.50368 17.4963 6 16.875 6C16.2537 6 15.75 6.50368 15.75 7.125C15.75 7.74632 16.2537 8.25 16.875 8.25Z" fill="black"/>
</svg>
