<svg width="25" height="24" viewBox="0 0 25 24" fill="none" xmlns="http://www.w3.org/2000/svg">
<path d="M18.1586 5.037C17.1695 3.88716 16.6514 2.40156 16.6926 0.889085L12.9969 0.799805C12.9969 0.799805 12.9969 0.957485 12.9969 1.17012V15.9904C13.0485 20.679 5.64064 20.5652 6.22672 15.3827C6.58504 13.322 8.79928 12.0539 10.7668 12.7708V8.99988C6.48328 8.25396 2.42392 11.6634 2.46664 16.0069C2.84104 25.4269 16.3521 25.4281 16.727 16.0069C16.6326 15.6697 16.6854 9.39229 16.672 8.86285C18.3525 9.90853 20.3078 10.4312 22.288 10.3643V6.4698C20.4573 6.4698 19.0602 5.98308 18.1586 5.037Z" fill="white"/>
</svg>
