<svg width="24" height="24" viewBox="0 0 24 24" fill="none" xmlns="http://www.w3.org/2000/svg">
<path fill-rule="evenodd" clip-rule="evenodd" d="M24 4.36789C23.1182 4.76948 22.1687 5.04106 21.1727 5.1624C22.1898 4.53835 22.9702 3.54882 23.3379 2.37006C22.3856 2.94788 21.3333 3.36825 20.2092 3.5936C19.3133 2.61274 18.0328 2.00024 16.6156 2.00024C13.8982 2.00024 11.6936 4.26099 11.6936 7.049C11.6936 7.44481 11.7359 7.82907 11.8204 8.19887C7.72812 7.98797 4.10072 5.98002 1.67072 2.92187C1.2467 3.67016 1.00439 4.53835 1.00439 5.46287C1.00439 7.21368 1.87357 8.75937 3.19493 9.66511C2.38916 9.64055 1.62845 9.41086 0.963547 9.03528V9.09739C0.963547 11.5445 2.66103 13.5857 4.91495 14.0479C4.5022 14.1664 4.06691 14.2256 3.61754 14.2256C3.30058 14.2256 2.99067 14.1953 2.69061 14.136C3.31748 16.1411 5.1347 17.6015 7.29001 17.6405C5.6052 18.9955 3.48089 19.8031 1.17485 19.8031C0.777597 19.8031 0.384575 19.7799 0 19.7337C2.17926 21.1638 4.76844 22.0002 7.54781 22.0002C16.6057 22.0002 21.5573 14.3079 21.5573 7.63549C21.5573 7.41592 21.5531 7.19634 21.5446 6.9811C22.5068 6.26893 23.3421 5.38053 24 4.36789Z" fill="white"/>
</svg>
